<svg width="9" height="7" xmlns="http://www.w3.org/2000/svg"><path d="M8.071.294L8.07.293Q8 .223 7.918.169 7.836.114 7.746.076 7.655.04 7.558.02 7.462 0 7.363 0q-.098 0-.195.02-.096.019-.187.056-.09.038-.173.093-.082.054-.151.124L3.12 3.828 1.707 2.414q-.141-.14-.325-.217Q1.2 2.121 1 2.121t-.382.076q-.184.076-.324.217l-.002.001q-.07.07-.124.152-.055.081-.092.172-.038.091-.057.188-.02.096-.02.195 0 .098.02.194.02.097.057.188.037.09.092.173.055.081.124.151L2.384 5.92l.029.03.001.001q.054.054.115.099.061.045.128.08t.14.06q.071.024.146.038.074.013.15.015t.151-.007q.075-.01.148-.03.073-.02.142-.052h.001q.165-.075.293-.203l.001-.002.018-.018L8.07 1.707q.07-.07.124-.151.055-.082.093-.173.037-.091.056-.187.02-.097.02-.195 0-.099-.02-.195-.019-.097-.056-.188-.038-.09-.093-.172Q8.14.364 8.07.294z" fill="#FFF" fill-rule="evenodd"/></svg>