<svg width="12px" height="12px" viewBox="0 0 12 12" version="1.1" xmlns:xlink="http://www.w3.org/1999/xlink" xmlns="http://www.w3.org/2000/svg">
    <path d="M12 6C12 9.31371 9.31371 12 6 12C2.68629 12 0 9.31371 0 6C0 2.68629 2.68629 0 6 0C9.31371 0 12 2.68629 12 6ZM9.22417 3.47417L9.93269 4.18269Q9.96744 4.21744 9.99474 4.2583Q10.022 4.29917 10.0409 4.34457Q10.0597 4.38998 10.0693 4.43818Q10.0788 4.48639 10.0788 4.53553Q10.0788 4.58468 10.0693 4.63288Q10.0597 4.68109 10.0409 4.72649Q10.022 4.7719 9.99474 4.81276Q9.96744 4.85363 9.93269 4.88838L5.68863 9.13243Q5.65388 9.16719 5.61302 9.19449Q5.57215 9.2218 5.52674 9.2406Q5.48134 9.25941 5.43314 9.269Q5.38493 9.27859 5.33579 9.27859Q5.28664 9.27859 5.23844 9.269Q5.19023 9.25941 5.14483 9.2406Q5.09942 9.2218 5.05856 9.19449Q5.01769 9.16719 4.98294 9.13243L2.1531 6.30259Q2.11835 6.26784 2.09104 6.22698Q2.06374 6.18611 2.04493 6.14071Q2.02612 6.0953 2.01653 6.0471Q2.00694 5.99889 2.00694 5.94975Q2.00694 5.9006 2.01653 5.8524Q2.02612 5.80419 2.04493 5.75879Q2.06374 5.71338 2.09104 5.67252Q2.11835 5.63165 2.1531 5.5969L2.86162 4.88838Q2.93181 4.81819 3.02351 4.78021Q3.11521 4.74223 3.21447 4.74223Q3.31372 4.74223 3.40543 4.78021Q3.49713 4.81819 3.56731 4.88838L5.33579 6.65685L8.51847 3.47417Q8.55322 3.43941 8.59409 3.41211Q8.63495 3.3848 8.68036 3.366Q8.72577 3.34719 8.77397 3.3376Q8.82217 3.32801 8.87132 3.32801Q8.92047 3.32801 8.96867 3.3376Q9.01687 3.34719 9.06228 3.366Q9.10768 3.3848 9.14855 3.41211Q9.18941 3.43941 9.22417 3.47417Z" id="Combined-Shape" fill="#17AD6D" fill-rule="evenodd" stroke="none" />
</svg>