<svg width="15px" height="13px" viewBox="0 0 15 13" version="1.1" xmlns:xlink="http://www.w3.org/1999/xlink" xmlns="http://www.w3.org/2000/svg">
    <path d="M13.8829 11.5234L7.88292 0.523438C7.79438 0.361979 7.67198 0.234375 7.51573 0.140625C7.35948 0.046875 7.19021 0 7.00792 0Q6.73448 0 6.50011 0.140625C6.34386 0.234375 6.22146 0.361979 6.13292 0.523438L0.132921 11.5234Q-0.140516 12.0156 0.148546 12.5078C0.237088 12.6589 0.358181 12.7786 0.511827 12.8672C0.665473 12.9557 0.830838 13 1.00792 13L13.0079 13C13.185 13 13.3504 12.9557 13.504 12.8672C13.6577 12.7786 13.7788 12.6589 13.8673 12.5078C14.06 12.1797 14.0652 11.8516 13.8829 11.5234ZM7.99219 7.82031L8.13281 4.23438C8.13281 4.17188 8.10677 4.1224 8.05469 4.08594Q7.95313 4 7.86719 4L6.14844 4Q6.0625 4 5.96094 4.08594Q5.88281 4.14063 5.88281 4.25L6.01563 7.82031Q6.01563 7.89844 6.09375 7.94922Q6.17188 8 6.28125 8L7.72656 8C7.79948 8 7.86068 7.98307 7.91016 7.94922Q7.98438 7.89844 7.99219 7.82031ZM8.00781 10.7422L8.00781 9.25781C8.00781 9.1849 7.98307 9.1237 7.93359 9.07422Q7.85938 9 7.75781 9L6.25781 9Q6.15625 9 6.08203 9.07422C6.03255 9.1237 6.00781 9.1849 6.00781 9.25781L6.00781 10.7422C6.00781 10.8151 6.03255 10.8763 6.08203 10.9258Q6.15625 11 6.25781 11L7.75781 11Q7.85938 11 7.93359 10.9258C7.98307 10.8763 8.00781 10.8151 8.00781 10.7422Z" id="Shape" fill="#DD9A1A" fill-rule="evenodd" stroke="none" />
</svg>