<svg xmlns="http://www.w3.org/2000/svg" version="1.1" xmlns:xlink="http://www.w3.org/1999/xlink" xmlns:svgjs="http://svgjs.com/svgjs" width="512" height="512" x="0" y="0" viewBox="0 0 24 24" style="enable-background:new 0 0 512 512" xml:space="preserve" class=""><g><path xmlns="http://www.w3.org/2000/svg" clip-rule="evenodd" d="m18 12c2.2091 0 4-1.7909 4-4 0-2.20914-1.7909-4-4-4-1.8638 0-3.4299 1.27477-3.874 3h-11.126c-.55228 0-1 .44772-1 1 0 .55229.44772 1 1 1h11.126c.4441 1.7252 2.0102 3 3.874 3zm-2-4c0 1.10457.8954 2 2 2s2-.89543 2-2-.8954-2-2-2-2 .89543-2 2zm-14 8c0-2.2091 1.79086-4 4-4 1.86384 0 3.42994 1.2748 3.87398 3h11.12602c.5523 0 1 .4477 1 1s-.4477 1-1 1h-11.12602c-.44404 1.7252-2.01014 3-3.87398 3-2.20914 0-4-1.7909-4-4zm6 0c0-1.1046-.89543-2-2-2s-2 .8954-2 2 .89543 2 2 2 2-.8954 2-2z" fill-rule="evenodd" data-original="#000000" class=""></path></g></svg>