<svg width="9px" height="7px" viewBox="0 0 9 7" version="1.1" xmlns:xlink="http://www.w3.org/1999/xlink" xmlns="http://www.w3.org/2000/svg">
    <path d="M8.0711 0.29424L8.06968 0.292825Q8.00011 0.223251 7.9183 0.168587Q7.83648 0.113923 7.74558 0.0762695Q7.65468 0.0386161 7.55818 0.0194206Q7.46167 0.000225136 7.36328 0.000225136Q7.26489 0.000225136 7.16839 0.0194206Q7.07188 0.0386161 6.98098 0.0762695Q6.89008 0.113923 6.80827 0.168587Q6.72646 0.223251 6.65688 0.292825L3.12124 3.82846L1.70655 2.41377Q1.56604 2.27326 1.38245 2.19721Q1.19886 2.12117 1.00015 2.12117Q0.801438 2.12117 0.61785 2.19721Q0.434263 2.27326 0.293751 2.41377L0.292337 2.41518Q0.222763 2.48476 0.168099 2.56657Q0.113435 2.64838 0.0757812 2.73928Q0.0381279 2.83018 0.0189324 2.92669Q-0.000263141 3.02319 -0.000263141 3.12158Q-0.000263141 3.21997 0.0189324 3.31648Q0.0381279 3.41298 0.0757812 3.50388Q0.113435 3.59479 0.168099 3.6766Q0.222763 3.75841 0.292337 3.82798L2.38422 5.91986Q2.39821 5.93507 2.41283 5.94968L2.41424 5.95109Q2.46787 6.00473 2.52899 6.04964Q2.5901 6.09456 2.65729 6.12974Q2.72449 6.16492 2.79622 6.18955Q2.86796 6.21418 2.94259 6.2277Q3.01722 6.24122 3.09304 6.24331Q3.16885 6.24541 3.24412 6.23603Q3.31938 6.22666 3.39237 6.20603Q3.46535 6.1854 3.53439 6.15399L3.535 6.15371Q3.69983 6.07875 3.82787 5.95072L3.82929 5.9493Q3.83823 5.94036 3.84695 5.93119L8.0711 1.70704Q8.14067 1.63746 8.19533 1.55565Q8.25 1.47384 8.28765 1.38294Q8.3253 1.29204 8.3445 1.19553Q8.3637 1.09903 8.3637 1.00064Q8.3637 0.902246 8.3445 0.805744Q8.3253 0.709242 8.28765 0.618338Q8.25 0.527435 8.19533 0.445625Q8.14067 0.363814 8.0711 0.29424Z" id="Combined-Shape" fill="#FFFFFF" fill-rule="evenodd" stroke="none" />
</svg>